<?xml version="1.0" encoding="utf-8"?>
<!-- Generator: Adobe Illustrator 22.1.0, SVG Export Plug-In . SVG Version: 6.00 Build 0)  -->
<svg version="1.1" id="Layer_1" xmlns="http://www.w3.org/2000/svg" xmlns:xlink="http://www.w3.org/1999/xlink" x="0px" y="0px"
	 viewBox="0 0 32 32" style="enable-background:new 0 0 32 32;" xml:space="preserve">
<style type="text/css">
	.st0{fill:#333333;}
</style>
<g id="search_1_">
	<path class="st0" d="M13.1,0C8.8,0,5.2,3.5,5.2,7.9c0,1.3,0.3,2.6,0.9,3.7L0.7,17l0,0C0.3,17.4,0,18,0,18.7C0,19.9,1,21,2.3,21
		C3,21,3.5,20.7,4,20.3l0,0l5.5-5.5c1.1,0.6,2.4,0.9,3.7,0.9c4.3,0,7.9-3.5,7.9-7.9S17.5,0,13.1,0z M3.1,19.5
		c-0.2,0.2-0.5,0.4-0.8,0.4c-0.6,0-1.2-0.5-1.2-1.2c0-0.3,0.1-0.6,0.4-0.8l0,0l5.3-5.3c0.5,0.6,1,1.2,1.6,1.6L3.1,19.5z M13.1,14.4
		c-3.6,0-6.6-2.9-6.6-6.6c0-3.6,2.9-6.6,6.6-6.6c3.6,0,6.6,2.9,6.6,6.6C19.7,11.5,16.7,14.4,13.1,14.4z"/>
	<path class="st0" d="M13.1,3.3c-2.5,0-4.6,2.1-4.6,4.6c0,0.2,0.1,0.3,0.3,0.3s0.3-0.1,0.3-0.3c0-2.2,1.8-3.9,3.9-3.9
		c0.2,0,0.3-0.1,0.3-0.3C13.4,3.4,13.3,3.3,13.1,3.3z"/>
</g>
</svg>
